<svg width="12" height="10" fill="none" xmlns="http://www.w3.org/2000/svg"><path fill-rule="evenodd" clip-rule="evenodd" d="M1.767.237h9.058c.556 0 1.006.45 1.006 1.006v7.045c0 .556-.45 1.007-1.006 1.007H1.767c-.556 0-1.006-.45-1.006-1.007V1.243A1.004 1.004 0 011.767.237zm2.61 4.635a1.803 1.803 0 10-.807 3.416h5.452a1.803 1.803 0 10-.806-3.416l-.85.425a2.39 2.39 0 01-2.139 0l-.85-.425zm-2.61-2.888c0 .28.159.537.41.663L4.27 3.694a4.529 4.529 0 004.05 0l2.094-1.047a.741.741 0 00-.331-1.404H2.508a.741.741 0 00-.74.741z" fill="#C6C6C6"/></svg>