<svg width="20" height="20" fill="none" xmlns="http://www.w3.org/2000/svg"><path fill-rule="evenodd" clip-rule="evenodd" d="M11.667 5.833A1.668 1.668 0 1010 7.5c.92 0 1.667-.747 1.667-1.667zm1.666 0A3.337 3.337 0 0110 9.167a3.337 3.337 0 01-3.333-3.334A3.337 3.337 0 0110 2.5a3.337 3.337 0 013.333 3.333zM4.167 16.667A5.84 5.84 0 0110 10.833a5.84 5.84 0 015.833 5.834.833.833 0 11-1.666 0A4.171 4.171 0 0010 12.5a4.171 4.171 0 00-4.167 4.167.833.833 0 11-1.666 0z" fill="#000"/><mask id="a" maskUnits="userSpaceOnUse" x="4" y="2" width="12" height="16"><path fill-rule="evenodd" clip-rule="evenodd" d="M11.667 5.833A1.668 1.668 0 1010 7.5c.92 0 1.667-.747 1.667-1.667zm1.666 0A3.337 3.337 0 0110 9.167a3.337 3.337 0 01-3.333-3.334A3.337 3.337 0 0110 2.5a3.337 3.337 0 013.333 3.333zM4.167 16.667A5.84 5.84 0 0110 10.833a5.84 5.84 0 015.833 5.834.833.833 0 11-1.666 0A4.171 4.171 0 0010 12.5a4.171 4.171 0 00-4.167 4.167.833.833 0 11-1.666 0z" fill="#fff"/></mask><g mask="url(#a)"><path fill="#00AC4E" d="M0 0h20v20H0z"/></g></svg>