<svg width="13" height="13" fill="none" xmlns="http://www.w3.org/2000/svg"><path fill-rule="evenodd" clip-rule="evenodd" d="M7.115 10.19V7.027h3.163a.527.527 0 100-1.054H7.115V2.81a.527.527 0 10-1.054 0v3.163H2.898a.527.527 0 100 1.054H6.06v3.163a.527.527 0 101.054 0z" fill="#000"/><mask id="a" maskUnits="userSpaceOnUse" x="2" y="2" width="9" height="9"><path fill-rule="evenodd" clip-rule="evenodd" d="M7.115 10.19V7.027h3.163a.527.527 0 100-1.054H7.115V2.81a.527.527 0 10-1.054 0v3.163H2.898a.527.527 0 100 1.054H6.06v3.163a.527.527 0 101.054 0z" fill="#fff"/></mask><g mask="url(#a)"><path fill="#000" d="M12.914.174v12.651H.263V.175z"/></g></svg>