<svg width="20" height="20" fill="none" xmlns="http://www.w3.org/2000/svg"><path fill-rule="evenodd" clip-rule="evenodd" d="M13.652 11.623H7.304L5.94 6.643h10.212l-2.5 4.981zM17.57 5.77a1.657 1.657 0 00-1.418-.788H5.485L4.97 3.103a.833.833 0 00-.805-.612H2.5a.832.832 0 00-.834.83c0 .458.373.83.834.83h1.03l2.332 8.521c.1.361.429.612.804.612h7.5a.834.834 0 00.746-.46l2.73-5.44a1.644 1.644 0 00-.073-1.615zM6.25 14.944c-.69 0-1.25.558-1.25 1.246s.56 1.245 1.25 1.245 1.25-.557 1.25-1.245c0-.688-.56-1.246-1.25-1.246zm7.083 1.246c0-.688.56-1.246 1.25-1.246s1.25.558 1.25 1.246-.56 1.245-1.25 1.245-1.25-.557-1.25-1.245z" fill="#000"/><mask id="a" maskUnits="userSpaceOnUse" x="1" y="2" width="17" height="16"><path fill-rule="evenodd" clip-rule="evenodd" d="M13.652 11.623H7.304L5.94 6.643h10.212l-2.5 4.981zM17.57 5.77a1.657 1.657 0 00-1.418-.788H5.485L4.97 3.103a.833.833 0 00-.805-.612H2.5a.832.832 0 00-.834.83c0 .458.373.83.834.83h1.03l2.332 8.521c.1.361.429.612.804.612h7.5a.834.834 0 00.746-.46l2.73-5.44a1.644 1.644 0 00-.073-1.615zM6.25 14.944c-.69 0-1.25.558-1.25 1.246s.56 1.245 1.25 1.245 1.25-.557 1.25-1.245c0-.688-.56-1.246-1.25-1.246zm7.083 1.246c0-.688.56-1.246 1.25-1.246s1.25.558 1.25 1.246-.56 1.245-1.25 1.245-1.25-.557-1.25-1.245z" fill="#fff"/></mask><g mask="url(#a)"><path fill="#00AC4E" d="M0 0h20v19.926H0z"/></g></svg>